<svg width="21" height="21" viewBox="0 0 21 21" fill="none" xmlns="http://www.w3.org/2000/svg">
<path d="M10.4716 0C10.3082 0 10.1516 0.0648873 10.0361 0.180388C9.92059 0.295888 9.85571 0.45254 9.85571 0.615882V6.36411C9.85571 6.52746 9.92059 6.68411 10.0361 6.79961C10.1516 6.91511 10.3082 6.98 10.4716 6.98C11.2398 6.98011 11.9866 7.23371 12.596 7.70147C13.2054 8.16923 13.6435 8.82501 13.8422 9.5671C14.041 10.3092 13.9893 11.0961 13.6953 11.8059C13.4012 12.5156 12.8812 13.1085 12.2158 13.4926C11.5505 13.8766 10.777 14.0304 10.0153 13.9301C9.25366 13.8298 8.54638 13.481 8.00317 12.9377C7.45996 12.3944 7.11117 11.6871 7.01091 10.9255C6.91065 10.1638 7.06451 9.39031 7.44863 8.72499C7.48912 8.65491 7.51539 8.57754 7.52595 8.49729C7.53651 8.41705 7.53116 8.33551 7.51018 8.25734C7.48921 8.17916 7.45303 8.10589 7.40373 8.04171C7.35442 7.97753 7.29294 7.9237 7.22281 7.88329L2.24443 5.00917C2.17435 4.96869 2.09697 4.94241 2.01673 4.93185C1.93648 4.92129 1.85495 4.92665 1.77677 4.94763C1.6986 4.9686 1.62533 5.00477 1.56115 5.05408C1.49697 5.10339 1.44313 5.16487 1.40273 5.235C0.25036 7.23096 -0.211224 9.55138 0.0895612 11.8364C0.390346 14.1214 1.43669 16.2434 3.06632 17.8731C4.69596 19.5029 6.81781 20.5494 9.10281 20.8503C11.3878 21.1513 13.7083 20.6899 15.7043 19.5377C17.7004 18.3855 19.2605 16.6068 20.1426 14.4776C21.0248 12.3484 21.1798 9.98758 20.5835 7.76131C19.9873 5.53503 18.6731 3.56771 16.8448 2.16443C15.0165 0.761155 12.7763 0.000348154 10.4716 0ZM2.17874 6.39388L6.10909 8.66238C5.87177 9.23547 5.74969 9.84971 5.74983 10.47C5.75053 10.6759 5.76424 10.8817 5.79088 11.0859L1.40786 12.2612C1.0166 10.2737 1.28737 8.21282 2.17874 6.39388ZM1.72709 13.4468L6.11012 12.2725C6.42836 13.0374 6.94178 13.7054 7.59906 14.2098C8.25634 14.7141 9.03448 15.0372 9.85571 15.1466V19.6836C8.03736 19.5595 6.29608 18.9015 4.8501 17.792C3.40411 16.6825 2.31772 15.171 1.72709 13.4468ZM11.0875 19.6877V15.1507C12.223 15.0009 13.2653 14.4435 14.0204 13.5823C14.7755 12.7211 15.1918 11.6148 15.1918 10.4695C15.1918 9.32414 14.7755 8.21784 14.0204 7.35664C13.2653 6.49543 12.223 5.93804 11.0875 5.78826V1.25229C13.4258 1.40845 15.6175 2.44748 17.2185 4.15896C18.8195 5.87043 19.7102 8.12642 19.7102 10.47C19.7102 12.8136 18.8195 15.0696 17.2185 16.781C15.6175 18.4925 13.4258 19.5315 11.0875 19.6877Z" fill="#767676"/>
</svg>
