<svg width="26" height="26" viewBox="0 0 26 26" fill="none" xmlns="http://www.w3.org/2000/svg">
<path d="M12.6667 12.6667C10.925 12.6667 9.43403 12.0465 8.19375 10.8062C6.95347 9.56597 6.33333 8.075 6.33333 6.33333C6.33333 4.59167 6.95347 3.10069 8.19375 1.86042C9.43403 0.620139 10.925 0 12.6667 0C14.4083 0 15.8993 0.620139 17.1396 1.86042C18.3799 3.10069 19 4.59167 19 6.33333C19 8.075 18.3799 9.56597 17.1396 10.8062C15.8993 12.0465 14.4083 12.6667 12.6667 12.6667ZM0 25.3333V20.9C0 20.0028 0.230903 19.1781 0.692708 18.426C1.15451 17.674 1.76806 17.1 2.53333 16.7042C4.16944 15.8861 5.83194 15.2726 7.52083 14.8635C9.20972 14.4545 10.925 14.25 12.6667 14.25C14.4083 14.25 16.1236 14.4545 17.8125 14.8635C19.5014 15.2726 21.1639 15.8861 22.8 16.7042C23.5653 17.1 24.1788 17.674 24.6406 18.426C25.1024 19.1781 25.3333 20.0028 25.3333 20.9V25.3333H0ZM3.16667 22.1667H22.1667V20.9C22.1667 20.6097 22.0941 20.3458 21.949 20.1083C21.8038 19.8708 21.6125 19.6861 21.375 19.5542C19.95 18.8417 18.5118 18.3073 17.0604 17.951C15.609 17.5948 14.1444 17.4167 12.6667 17.4167C11.1889 17.4167 9.72431 17.5948 8.27292 17.951C6.82153 18.3073 5.38333 18.8417 3.95833 19.5542C3.72083 19.6861 3.52951 19.8708 3.38437 20.1083C3.23924 20.3458 3.16667 20.6097 3.16667 20.9V22.1667ZM12.6667 9.5C13.5375 9.5 14.283 9.18993 14.9031 8.56979C15.5233 7.94965 15.8333 7.20417 15.8333 6.33333C15.8333 5.4625 15.5233 4.71701 14.9031 4.09687C14.283 3.47674 13.5375 3.16667 12.6667 3.16667C11.7958 3.16667 11.0503 3.47674 10.4302 4.09687C9.81007 4.71701 9.5 5.4625 9.5 6.33333C9.5 7.20417 9.81007 7.94965 10.4302 8.56979C11.0503 9.18993 11.7958 9.5 12.6667 9.5Z" fill="#1D6CE9"/>
</svg>
